<svg xmlns="http://www.w3.org/2000/svg" width="720" height="430" viewBox="0 0 720 430" font-family="'DejaVu Sans Mono','Consolas',monospace" font-size="14">
  <rect width="720" height="430" rx="8" fill="#1e1e2e"/>
  <rect width="720" height="30" rx="8" fill="#313244"/>
  <rect y="20" width="720" height="10" fill="#313244"/>
  <circle cx="20" cy="15" r="6" fill="#f38ba8"/>
  <circle cx="40" cy="15" r="6" fill="#f9e2af"/>
  <circle cx="60" cy="15" r="6" fill="#a6e3a1"/>
  <text x="360" y="20" fill="#bac2de" text-anchor="middle" font-size="12">Analyst Tool — terminal</text>
  <g fill="#cdd6f4">
    <text x="16" y="56">Analyst Tool Initialized.</text>
    <text x="16" y="78" fill="#a6adc8">Cache enabled as user 'bob' (342 entries). API calls saved so far: 1289.</text>
    <text x="16" y="116" fill="#f5e0dc" font-weight="bold">IP Analysis Report for 45.145.66.165:</text>
    <text x="16" y="140" fill="#f9e2af" font-weight="bold">*** MULTI-USER NOTICE: 3 users have checked this IP in the last 7</text>
    <text x="16" y="158" fill="#f9e2af" font-weight="bold">    days (5 checks total).</text>
    <text x="16" y="192" fill="#cba6f7" text-decoration="underline">VirusTotal Detections:</text>
    <text x="40" y="214"><tspan fill="#f38ba8" font-weight="bold">Malicious:</tspan><tspan x="240" fill="#cdd6f4">12</tspan></text>
    <text x="40" y="234"><tspan fill="#f38ba8" font-weight="bold">Malware:</tspan><tspan x="240">11</tspan></text>
    <text x="40" y="254">Suspicious:<tspan x="240">0</tspan></text>
    <text x="40" y="274">Clean:<tspan x="240">72</tspan></text>
    <text x="16" y="308" fill="#cba6f7" text-decoration="underline">Abuse IP DB:</text>
    <text x="40" y="330"><tspan fill="#f38ba8" font-weight="bold">Abuse Confidence Score:</tspan><tspan x="320">97%</tspan></text>
    <text x="40" y="350">Total Reports:<tspan x="320">53</tspan></text>
    <text x="16" y="384" fill="#cba6f7" text-decoration="underline">TOR Exit Node:</text>
    <text x="320" y="384">No</text>
    <text x="16" y="412" fill="#a6e3a1">▌</text>
  </g>
</svg>
