<svg xmlns="http://www.w3.org/2000/svg" width="720" height="430" viewBox="0 0 720 430" font-family="'DejaVu Sans Mono','Consolas',monospace" font-size="14">
  <rect width="720" height="430" rx="8" fill="#1e1e2e"/>
  <rect width="720" height="30" rx="8" fill="#313244"/>
  <rect y="20" width="720" height="10" fill="#313244"/>
  <circle cx="20" cy="15" r="6" fill="#f38ba8"/>
  <circle cx="40" cy="15" r="6" fill="#f9e2af"/>
  <circle cx="60" cy="15" r="6" fill="#a6e3a1"/>
  <text x="360" y="20" fill="#bac2de" text-anchor="middle" font-size="12">analyst tool — port / Windows Event ID lookup</text>

  <text x="16" y="56" fill="#f5e0dc" font-weight="bold">Port / Windows Event ID lookup: 4444</text>
  <text x="16" y="80" fill="#cba6f7" text-decoration="underline">Port 4444:</text>
  <text x="40" y="102" fill="#a6adc8">Service:<tspan x="240" fill="#cdd6f4">no well-known service</tspan></text>
  <text x="40" y="124"><tspan fill="#f38ba8">Notable:</tspan><tspan x="240" fill="#f38ba8">Metasploit / Meterpreter default (malicious)</tspan></text>
  <text x="40" y="146" fill="#89b4fa">https://www.speedguide.net/port.php?port=4444</text>
  <text x="16" y="170" fill="#cba6f7" text-decoration="underline">Windows Event ID 4444:</text>
  <text x="40" y="192" fill="#a6adc8">Name:<tspan x="240" fill="#cdd6f4">not a commonly logged security event</tspan></text>

  <text x="16" y="240" fill="#f5e0dc" font-weight="bold">Port / Windows Event ID lookup: 4625</text>
  <text x="16" y="264" fill="#cba6f7" text-decoration="underline">Port 4625:</text>
  <text x="40" y="286" fill="#a6adc8">Service:<tspan x="240" fill="#cdd6f4">no well-known service</tspan></text>
  <text x="16" y="310" fill="#cba6f7" text-decoration="underline">Windows Event ID 4625:</text>
  <text x="40" y="332" fill="#a6adc8">Name:<tspan x="200" fill="#cdd6f4">An account failed to log on</tspan><tspan x="470" fill="#94e2d5">[Security · Logon/Logoff]</tspan></text>
  <text x="40" y="354"><tspan fill="#f9e2af">Analyst note:</tspan><tspan x="200" fill="#cdd6f4">brute-force / password-spray —</tspan></text>
  <text x="200" y="374" fill="#cdd6f4">check volume, LogonType, source address</text>
  <text x="40" y="396" fill="#89b4fa">https://www.ultimatewindowssecurity.com/.../event.aspx?eventid=4625</text>
  <text x="16" y="420" fill="#a6e3a1">▌</text>
</svg>
